<svg id="SvgjsSvg1029" width="288" height="288" xmlns="http://www.w3.org/2000/svg" version="1.1" xmlns:xlink="http://www.w3.org/1999/xlink" xmlns:svgjs="http://svgjs.com/svgjs"><defs id="SvgjsDefs1030"></defs><g id="SvgjsG1031" transform="matrix(1,0,0,1,0,0)"><svg xmlns="http://www.w3.org/2000/svg" width="288" height="288" viewBox="0 0 6.35 6.35"><path style="line-height:normal;font-variant-ligatures:normal;font-variant-position:normal;font-variant-caps:normal;font-variant-numeric:normal;font-variant-alternates:normal;font-feature-settings:normal;text-indent:0;text-align:start;text-decoration-line:none;text-decoration-style:solid;text-decoration-color:#000;text-transform:none;text-orientation:mixed;shape-padding:0;isolation:auto;mix-blend-mode:normal" d="m 0.53013124,291.44374 a 0.26453919,0.26452352 0 0 0 -0.26554596,0.26554 v 4.23144 a 0.26453919,0.26452352 0 0 0 0.26554596,0.26552 H 5.8198689 a 0.26453919,0.26452352 0 0 0 0.2655459,-0.26552 v -4.23144 a 0.26453919,0.26452352 0 0 0 -0.2655459,-0.26554 z m 0.68556326,0.52952 h 3.9253274 l -1.9647303,1.76108 z m -0.42208379,0.33217 2.20496139,1.98115 a 0.26453919,0.26452352 0 0 0 0.3533726,0 l 2.2044447,-1.97495 v 3.3651 H 0.79361071 Z" color="#000" font-family="sans-serif" font-weight="400" overflow="visible" transform="translate(0 -290.65)" fill="#ffffff" class="color000 svgShape"></path></svg></g></svg>